<svg xmlns="http://www.w3.org/2000/svg"
  width="784pt" height="300pt" viewBox="0 0 784 300"
  preserveAspectRatio="xMidYMid meet"
  class="logo-xmart">

  <style>
    .logo-xmart path {
      fill: currentColor;
    }
    @media (prefers-color-scheme: dark) {
     .logo-xmart {
       color: #fff;
     }
    }
  </style>

  <g transform="translate(0,300) scale(0.1,-0.1)" stroke="none">
    <path d="M916 2038 c5 -7 95 -122 202 -256 l194 -242 -28 -38 c-16 -20 -115
    -148 -221 -285 -106 -136 -193 -249 -193 -252 0 -3 62 -5 138 -5 l137 1 85
    117 c46 64 115 159 153 210 l68 93 152 -210 152 -210 138 -1 c75 0 137 3 137
    6 0 4 -305 400 -433 562 -7 9 45 80 192 262 110 138 201 252 201 255 0 3 -60
    5 -133 5 l-134 0 -134 -175 c-74 -96 -136 -174 -139 -174 -3 0 -65 79 -139
    175 l-133 174 -135 0 c-105 0 -133 -3 -127 -12z"/>
    <path d="M2177 2043 c-4 -3 -7 -249 -7 -545 l0 -538 110 0 110 0 0 370 c0 204
    4 370 9 370 4 0 63 -83 131 -185 l123 -185 121 0 122 0 129 191 130 191 3
    -376 2 -376 110 0 110 0 0 545 0 546 -122 -3 -122 -3 -174 -265 c-95 -146
    -177 -269 -181 -273 -5 -5 -89 116 -187 267 l-179 275 -116 1 c-64 0 -119 -3
    -122 -7z"/>
    <path d="M3737 1513 c-125 -296 -227 -542 -227 -546 0 -4 52 -6 116 -5 l117 3
    46 110 46 110 244 0 243 0 45 -112 45 -113 119 0 119 0 -15 38 c-8 20 -112
    264 -229 542 l-214 505 -114 3 -113 3 -228 -538z m431 55 c44 -108 77 -199 74
    -202 -8 -9 -332 -7 -332 2 0 22 164 412 170 405 5 -4 44 -97 88 -205z"/>
    <path d="M4780 1505 l0 -545 110 0 110 0 0 195 0 195 138 0 138 0 119 -195
    118 -195 128 0 128 0 -129 207 -128 208 58 27 c66 32 123 90 153 157 17 37 21
    65 21 141 0 119 -24 180 -96 245 -97 88 -196 105 -600 105 l-268 0 0 -545z
    m623 354 c149 -41 164 -246 23 -313 -28 -13 -70 -16 -230 -16 l-196 0 0 170 0
    170 183 0 c100 0 199 -5 220 -11z"/>
    <path d="M5857 2043 c-4 -3 -7 -44 -7 -89 l0 -84 228 -2 227 -3 3 -452 2 -453
    110 0 110 0 0 455 0 455 225 0 225 0 0 90 0 90 -558 0 c-307 0 -562 -3 -565
    -7z"/>
  </g>
</svg>

